<svg width="32" height="32" viewBox="0 0 32 32" fill="none" xmlns="http://www.w3.org/2000/svg">
<rect width="32" height="32" rx="2" fill="#242424"/>
<path d="M21.9893 7.16211L20.2461 7.2793C20.041 7.28906 19.8848 7.36719 19.7773 7.51367C19.6699 7.65039 19.6162 7.79199 19.6162 7.93848V18.4121C19.6162 20.0723 19.4014 21.5078 18.9717 22.7188C18.5518 23.9199 17.8584 24.8477 16.8916 25.502C15.9346 26.1562 14.6455 26.4834 13.0244 26.4834C12.3799 26.4834 11.7549 26.415 11.1494 26.2783C10.5537 26.1514 10.0557 26.0195 9.65527 25.8828C9.25488 25.7363 9.02539 25.6533 8.9668 25.6338V20.5068H10.7686L11.4277 24.1689C11.4863 24.4717 11.6523 24.6768 11.9258 24.7842C12.209 24.8916 12.502 24.9453 12.8047 24.9453C14.1719 24.9453 15.1436 24.418 15.7197 23.3633C16.2959 22.2988 16.584 20.7168 16.584 18.6172V7.93848C16.584 7.79199 16.5303 7.65039 16.4229 7.51367C16.3252 7.36719 16.1689 7.28906 15.9541 7.2793L14.0645 7.16211V5.87305H21.9893V7.16211Z" fill="white"/>
</svg>
